<svg width="177" height="192" viewBox="0 0 177 192" fill="none" xmlns="http://www.w3.org/2000/svg">
<path fill-rule="evenodd" clip-rule="evenodd" d="M30.5 78.5C15.9274 55.3334 1.07568 29.6536 0.343323 0H26.2479C30.718 16.7575 39.1361 40.6042 54.0001 73C74.4508 117.572 73.6771 160.712 67.0555 192H42.331C55.4355 164.7 63.1009 130.327 30.5 78.5Z" fill="#CDAF55"/>
<path fill-rule="evenodd" clip-rule="evenodd" d="M36.185 79C21.5306 55.7033 6.5938 29.8651 6.01727 0H31.8001C36.2354 16.782 44.6726 40.7807 59.685 73.5C80.027 117.835 79.3697 160.753 72.8455 192H48.2549C61.2125 164.781 68.5872 130.511 36.185 79Z" fill="#815F00"/>
<path fill-rule="evenodd" clip-rule="evenodd" d="M177 0H13.7756C12.2802 27.4658 21.8511 49.7127 36.185 72.5C68.8398 124.413 58.83 162.309 44.1499 192H177V0Z" fill="black"/>
</svg>
