<svg width="35" height="35" viewBox="0 0 35 35" fill="none" xmlns="http://www.w3.org/2000/svg">
<rect width="35" height="35" fill="white"/>
<rect x="1.92905" y="1.92914" width="1.20567" height="1.20567" fill="black"/>
<rect x="3.1347" y="1.92908" width="1.20567" height="1.20567" fill="black"/>
<rect x="4.3403" y="1.92908" width="1.20567" height="1.20567" fill="black"/>
<rect x="5.54599" y="1.92908" width="1.20567" height="1.20567" fill="black"/>
<rect x="6.75168" y="1.92908" width="1.20567" height="1.20567" fill="black"/>
<rect x="7.95737" y="1.92908" width="1.20567" height="1.20567" fill="black"/>
<rect x="9.16306" y="1.92908" width="1.20567" height="1.20567" fill="black"/>
<rect x="11.5744" y="1.92908" width="1.20567" height="1.20567" fill="black"/>
<rect x="15.1914" y="1.92908" width="1.20567" height="1.20567" fill="black"/>
<rect x="16.3971" y="1.92908" width="1.20567" height="1.20567" fill="black"/>
<rect x="21.2197" y="1.92908" width="1.20567" height="1.20567" fill="black"/>
<rect x="23.6311" y="1.92908" width="1.20567" height="1.20567" fill="black"/>
<rect x="24.8368" y="1.92908" width="1.20567" height="1.20567" fill="black"/>
<rect x="26.0425" y="1.92908" width="1.20567" height="1.20567" fill="black"/>
<rect x="27.2482" y="1.92908" width="1.20567" height="1.20567" fill="black"/>
<rect x="28.4539" y="1.92908" width="1.20567" height="1.20567" fill="black"/>
<rect x="29.6595" y="1.92908" width="1.20567" height="1.20567" fill="black"/>
<rect x="30.8651" y="1.92908" width="1.20567" height="1.20567" fill="black"/>
<rect x="1.92902" y="3.13486" width="1.20567" height="1.20567" fill="black"/>
<rect x="9.16306" y="3.13486" width="1.20567" height="1.20567" fill="black"/>
<rect x="12.7801" y="3.13486" width="1.20567" height="1.20567" fill="black"/>
<rect x="13.9857" y="3.13486" width="1.20567" height="1.20567" fill="black"/>
<rect x="15.1914" y="3.13486" width="1.20567" height="1.20567" fill="black"/>
<rect x="16.3971" y="3.13486" width="1.20567" height="1.20567" fill="black"/>
<rect x="23.6311" y="3.13486" width="1.20567" height="1.20567" fill="black"/>
<rect x="30.8651" y="3.13486" width="1.20567" height="1.20567" fill="black"/>
<rect x="1.92902" y="4.34045" width="1.20567" height="1.20567" fill="black"/>
<rect x="4.3403" y="4.34045" width="1.20567" height="1.20567" fill="black"/>
<rect x="5.54599" y="4.34045" width="1.20567" height="1.20567" fill="black"/>
<rect x="6.75168" y="4.34045" width="1.20567" height="1.20567" fill="black"/>
<rect x="9.16306" y="4.34045" width="1.20567" height="1.20567" fill="black"/>
<rect x="11.5744" y="4.34045" width="1.20567" height="1.20567" fill="black"/>
<rect x="16.3971" y="4.34045" width="1.20567" height="1.20567" fill="black"/>
<rect x="17.6028" y="4.34045" width="1.20567" height="1.20567" fill="black"/>
<rect x="18.8084" y="4.34045" width="1.20567" height="1.20567" fill="black"/>
<rect x="23.6311" y="4.34045" width="1.20567" height="1.20567" fill="black"/>
<rect x="26.0425" y="4.34045" width="1.20567" height="1.20567" fill="black"/>
<rect x="27.2482" y="4.34045" width="1.20567" height="1.20567" fill="black"/>
<rect x="28.4539" y="4.34045" width="1.20567" height="1.20567" fill="black"/>
<rect x="30.8651" y="4.34045" width="1.20567" height="1.20567" fill="black"/>
<rect x="1.92902" y="5.54623" width="1.20567" height="1.20567" fill="black"/>
<rect x="4.3403" y="5.54623" width="1.20567" height="1.20567" fill="black"/>
<rect x="5.54599" y="5.54623" width="1.20567" height="1.20567" fill="black"/>
<rect x="6.75168" y="5.54623" width="1.20567" height="1.20567" fill="black"/>
<rect x="9.16306" y="5.54623" width="1.20567" height="1.20567" fill="black"/>
<rect x="11.5744" y="5.54623" width="1.20567" height="1.20567" fill="black"/>
<rect x="12.7801" y="5.54623" width="1.20567" height="1.20567" fill="black"/>
<rect x="15.1914" y="5.54623" width="1.20567" height="1.20567" fill="black"/>
<rect x="16.3971" y="5.54623" width="1.20567" height="1.20567" fill="black"/>
<rect x="17.6028" y="5.54623" width="1.20567" height="1.20567" fill="black"/>
<rect x="20.0141" y="5.54623" width="1.20567" height="1.20567" fill="black"/>
<rect x="23.6311" y="5.54623" width="1.20567" height="1.20567" fill="black"/>
<rect x="26.0425" y="5.54623" width="1.20567" height="1.20567" fill="black"/>
<rect x="27.2482" y="5.54623" width="1.20567" height="1.20567" fill="black"/>
<rect x="28.4539" y="5.54623" width="1.20567" height="1.20567" fill="black"/>
<rect x="30.8651" y="5.54623" width="1.20567" height="1.20567" fill="black"/>
<rect x="1.92902" y="6.75183" width="1.20567" height="1.20567" fill="black"/>
<rect x="4.3403" y="6.75183" width="1.20567" height="1.20567" fill="black"/>
<rect x="5.54599" y="6.75183" width="1.20567" height="1.20567" fill="black"/>
<rect x="6.75168" y="6.75183" width="1.20567" height="1.20567" fill="black"/>
<rect x="9.16306" y="6.75183" width="1.20567" height="1.20567" fill="black"/>
<rect x="11.5744" y="6.75183" width="1.20567" height="1.20567" fill="black"/>
<rect x="12.7801" y="6.75183" width="1.20567" height="1.20567" fill="black"/>
<rect x="16.3971" y="6.75183" width="1.20567" height="1.20567" fill="black"/>
<rect x="17.6028" y="6.75183" width="1.20567" height="1.20567" fill="black"/>
<rect x="18.8084" y="6.75183" width="1.20567" height="1.20567" fill="black"/>
<rect x="20.0141" y="6.75183" width="1.20567" height="1.20567" fill="black"/>
<rect x="21.2197" y="6.75183" width="1.20567" height="1.20567" fill="black"/>
<rect x="23.6311" y="6.75183" width="1.20567" height="1.20567" fill="black"/>
<rect x="26.0425" y="6.75183" width="1.20567" height="1.20567" fill="black"/>
<rect x="27.2482" y="6.75183" width="1.20567" height="1.20567" fill="black"/>
<rect x="28.4539" y="6.75183" width="1.20567" height="1.20567" fill="black"/>
<rect x="30.8651" y="6.75183" width="1.20567" height="1.20567" fill="black"/>
<rect x="1.92902" y="7.95743" width="1.20567" height="1.20567" fill="black"/>
<rect x="9.16306" y="7.95743" width="1.20567" height="1.20567" fill="black"/>
<rect x="12.7801" y="7.95743" width="1.20567" height="1.20567" fill="black"/>
<rect x="16.3971" y="7.95743" width="1.20567" height="1.20567" fill="black"/>
<rect x="17.6028" y="7.95743" width="1.20567" height="1.20567" fill="black"/>
<rect x="18.8084" y="7.95743" width="1.20567" height="1.20567" fill="black"/>
<rect x="23.6311" y="7.95743" width="1.20567" height="1.20567" fill="black"/>
<rect x="30.8651" y="7.95743" width="1.20567" height="1.20567" fill="black"/>
<rect x="1.92902" y="9.16321" width="1.20567" height="1.20567" fill="black"/>
<rect x="3.1347" y="9.16321" width="1.20567" height="1.20567" fill="black"/>
<rect x="4.3403" y="9.16321" width="1.20567" height="1.20567" fill="black"/>
<rect x="5.54599" y="9.16321" width="1.20567" height="1.20567" fill="black"/>
<rect x="6.75168" y="9.16321" width="1.20567" height="1.20567" fill="black"/>
<rect x="7.95737" y="9.16321" width="1.20567" height="1.20567" fill="black"/>
<rect x="9.16306" y="9.16321" width="1.20567" height="1.20567" fill="black"/>
<rect x="11.5744" y="9.16321" width="1.20567" height="1.20567" fill="black"/>
<rect x="13.9857" y="9.16321" width="1.20567" height="1.20567" fill="black"/>
<rect x="16.3971" y="9.16321" width="1.20567" height="1.20567" fill="black"/>
<rect x="18.8084" y="9.16321" width="1.20567" height="1.20567" fill="black"/>
<rect x="21.2197" y="9.16321" width="1.20567" height="1.20567" fill="black"/>
<rect x="23.6311" y="9.16321" width="1.20567" height="1.20567" fill="black"/>
<rect x="24.8368" y="9.16321" width="1.20567" height="1.20567" fill="black"/>
<rect x="26.0425" y="9.16321" width="1.20567" height="1.20567" fill="black"/>
<rect x="27.2482" y="9.16321" width="1.20567" height="1.20567" fill="black"/>
<rect x="28.4539" y="9.16321" width="1.20567" height="1.20567" fill="black"/>
<rect x="29.6595" y="9.16321" width="1.20567" height="1.20567" fill="black"/>
<rect x="30.8651" y="9.16321" width="1.20567" height="1.20567" fill="black"/>
<rect x="12.7801" y="10.3688" width="1.20567" height="1.20567" fill="black"/>
<rect x="16.3971" y="10.3688" width="1.20567" height="1.20567" fill="black"/>
<rect x="20.0141" y="10.3688" width="1.20567" height="1.20567" fill="black"/>
<rect x="21.2197" y="10.3688" width="1.20567" height="1.20567" fill="black"/>
<rect x="1.92902" y="11.5744" width="1.20567" height="1.20567" fill="black"/>
<rect x="3.1347" y="11.5744" width="1.20567" height="1.20567" fill="black"/>
<rect x="4.3403" y="11.5744" width="1.20567" height="1.20567" fill="black"/>
<rect x="5.54599" y="11.5744" width="1.20567" height="1.20567" fill="black"/>
<rect x="9.16306" y="11.5744" width="1.20567" height="1.20567" fill="black"/>
<rect x="11.5744" y="11.5744" width="1.20567" height="1.20567" fill="black"/>
<rect x="15.1914" y="11.5744" width="1.20567" height="1.20567" fill="black"/>
<rect x="18.8084" y="11.5744" width="1.20567" height="1.20567" fill="black"/>
<rect x="20.0141" y="11.5744" width="1.20567" height="1.20567" fill="black"/>
<rect x="21.2197" y="11.5744" width="1.20567" height="1.20567" fill="black"/>
<rect x="22.4254" y="11.5744" width="1.20567" height="1.20567" fill="black"/>
<rect x="26.0425" y="11.5744" width="1.20567" height="1.20567" fill="black"/>
<rect x="27.2482" y="11.5744" width="1.20567" height="1.20567" fill="black"/>
<rect x="28.4539" y="11.5744" width="1.20567" height="1.20567" fill="black"/>
<rect x="30.8651" y="11.5744" width="1.20567" height="1.20567" fill="black"/>
<rect x="4.3403" y="12.7802" width="1.20567" height="1.20567" fill="black"/>
<rect x="5.54599" y="12.7802" width="1.20567" height="1.20567" fill="black"/>
<rect x="6.75168" y="12.7802" width="1.20567" height="1.20567" fill="black"/>
<rect x="10.3687" y="12.7802" width="1.20567" height="1.20567" fill="black"/>
<rect x="11.5744" y="12.7802" width="1.20567" height="1.20567" fill="black"/>
<rect x="12.7801" y="12.7802" width="1.20567" height="1.20567" fill="black"/>
<rect x="15.1914" y="12.7802" width="1.20567" height="1.20567" fill="black"/>
<rect x="17.6028" y="12.7802" width="1.20567" height="1.20567" fill="black"/>
<rect x="21.2197" y="12.7802" width="1.20567" height="1.20567" fill="black"/>
<rect x="22.4254" y="12.7802" width="1.20567" height="1.20567" fill="black"/>
<rect x="24.8368" y="12.7802" width="1.20567" height="1.20567" fill="black"/>
<rect x="29.6595" y="12.7802" width="1.20567" height="1.20567" fill="black"/>
<rect x="1.92902" y="13.9858" width="1.20567" height="1.20567" fill="black"/>
<rect x="3.1347" y="13.9858" width="1.20567" height="1.20567" fill="black"/>
<rect x="7.95737" y="13.9858" width="1.20567" height="1.20567" fill="black"/>
<rect x="9.16306" y="13.9858" width="1.20567" height="1.20567" fill="black"/>
<rect x="11.5744" y="13.9858" width="1.20567" height="1.20567" fill="black"/>
<rect x="15.1914" y="13.9858" width="1.20567" height="1.20567" fill="black"/>
<rect x="16.3971" y="13.9858" width="1.20567" height="1.20567" fill="black"/>
<rect x="21.2197" y="13.9858" width="1.20567" height="1.20567" fill="black"/>
<rect x="24.8368" y="13.9858" width="1.20567" height="1.20567" fill="black"/>
<rect x="1.92902" y="15.1916" width="1.20567" height="1.20567" fill="black"/>
<rect x="3.1347" y="15.1916" width="1.20567" height="1.20567" fill="black"/>
<rect x="7.95737" y="15.1916" width="1.20567" height="1.20567" fill="black"/>
<rect x="15.1914" y="15.1916" width="1.20567" height="1.20567" fill="black"/>
<rect x="17.6028" y="15.1916" width="1.20567" height="1.20567" fill="black"/>
<rect x="18.8084" y="15.1916" width="1.20567" height="1.20567" fill="black"/>
<rect x="20.0141" y="15.1916" width="1.20567" height="1.20567" fill="black"/>
<rect x="21.2197" y="15.1916" width="1.20567" height="1.20567" fill="black"/>
<rect x="22.4254" y="15.1916" width="1.20567" height="1.20567" fill="black"/>
<rect x="23.6311" y="15.1916" width="1.20567" height="1.20567" fill="black"/>
<rect x="27.2482" y="15.1916" width="1.20567" height="1.20567" fill="black"/>
<rect x="28.4539" y="15.1916" width="1.20567" height="1.20567" fill="black"/>
<rect x="3.1347" y="16.3972" width="1.20567" height="1.20567" fill="black"/>
<rect x="4.3403" y="16.3972" width="1.20567" height="1.20567" fill="black"/>
<rect x="5.54599" y="16.3972" width="1.20567" height="1.20567" fill="black"/>
<rect x="6.75168" y="16.3972" width="1.20567" height="1.20567" fill="black"/>
<rect x="7.95737" y="16.3972" width="1.20567" height="1.20567" fill="black"/>
<rect x="9.16306" y="16.3972" width="1.20567" height="1.20567" fill="black"/>
<rect x="10.3687" y="16.3972" width="1.20567" height="1.20567" fill="black"/>
<rect x="11.5744" y="16.3972" width="1.20567" height="1.20567" fill="black"/>
<rect x="12.7801" y="16.3972" width="1.20567" height="1.20567" fill="black"/>
<rect x="16.3971" y="16.3972" width="1.20567" height="1.20567" fill="black"/>
<rect x="17.6028" y="16.3972" width="1.20567" height="1.20567" fill="black"/>
<rect x="18.8084" y="16.3972" width="1.20567" height="1.20567" fill="black"/>
<rect x="20.0141" y="16.3972" width="1.20567" height="1.20567" fill="black"/>
<rect x="22.4254" y="16.3972" width="1.20567" height="1.20567" fill="black"/>
<rect x="23.6311" y="16.3972" width="1.20567" height="1.20567" fill="black"/>
<rect x="24.8368" y="16.3972" width="1.20567" height="1.20567" fill="black"/>
<rect x="26.0425" y="16.3972" width="1.20567" height="1.20567" fill="black"/>
<rect x="28.4539" y="16.3972" width="1.20567" height="1.20567" fill="black"/>
<rect x="29.6595" y="16.3972" width="1.20567" height="1.20567" fill="black"/>
<rect x="30.8651" y="16.3972" width="1.20567" height="1.20567" fill="black"/>
<rect x="4.3403" y="17.6029" width="1.20567" height="1.20567" fill="black"/>
<rect x="5.54599" y="17.6029" width="1.20567" height="1.20567" fill="black"/>
<rect x="7.95737" y="17.6029" width="1.20567" height="1.20567" fill="black"/>
<rect x="13.9857" y="17.6029" width="1.20567" height="1.20567" fill="black"/>
<rect x="16.3971" y="17.6029" width="1.20567" height="1.20567" fill="black"/>
<rect x="17.6028" y="17.6029" width="1.20567" height="1.20567" fill="black"/>
<rect x="18.8084" y="17.6029" width="1.20567" height="1.20567" fill="black"/>
<rect x="20.0141" y="17.6029" width="1.20567" height="1.20567" fill="black"/>
<rect x="21.2197" y="17.6029" width="1.20567" height="1.20567" fill="black"/>
<rect x="23.6311" y="17.6029" width="1.20567" height="1.20567" fill="black"/>
<rect x="24.8368" y="17.6029" width="1.20567" height="1.20567" fill="black"/>
<rect x="26.0425" y="17.6029" width="1.20567" height="1.20567" fill="black"/>
<rect x="30.8651" y="17.6029" width="1.20567" height="1.20567" fill="black"/>
<rect x="3.1347" y="18.8085" width="1.20567" height="1.20567" fill="black"/>
<rect x="4.3403" y="18.8085" width="1.20567" height="1.20567" fill="black"/>
<rect x="6.75168" y="18.8085" width="1.20567" height="1.20567" fill="black"/>
<rect x="7.95737" y="18.8085" width="1.20567" height="1.20567" fill="black"/>
<rect x="9.16306" y="18.8085" width="1.20567" height="1.20567" fill="black"/>
<rect x="12.7801" y="18.8085" width="1.20567" height="1.20567" fill="black"/>
<rect x="18.8084" y="18.8085" width="1.20567" height="1.20567" fill="black"/>
<rect x="21.2197" y="18.8085" width="1.20567" height="1.20567" fill="black"/>
<rect x="22.4254" y="18.8085" width="1.20567" height="1.20567" fill="black"/>
<rect x="26.0425" y="18.8085" width="1.20567" height="1.20567" fill="black"/>
<rect x="28.4539" y="18.8085" width="1.20567" height="1.20567" fill="black"/>
<rect x="29.6595" y="18.8085" width="1.20567" height="1.20567" fill="black"/>
<rect x="1.92902" y="20.0143" width="1.20567" height="1.20567" fill="black"/>
<rect x="4.3403" y="20.0143" width="1.20567" height="1.20567" fill="black"/>
<rect x="5.54599" y="20.0143" width="1.20567" height="1.20567" fill="black"/>
<rect x="6.75168" y="20.0143" width="1.20567" height="1.20567" fill="black"/>
<rect x="7.95737" y="20.0143" width="1.20567" height="1.20567" fill="black"/>
<rect x="10.3687" y="20.0143" width="1.20567" height="1.20567" fill="black"/>
<rect x="11.5744" y="20.0143" width="1.20567" height="1.20567" fill="black"/>
<rect x="12.7801" y="20.0143" width="1.20567" height="1.20567" fill="black"/>
<rect x="13.9857" y="20.0143" width="1.20567" height="1.20567" fill="black"/>
<rect x="15.1914" y="20.0143" width="1.20567" height="1.20567" fill="black"/>
<rect x="18.8084" y="20.0143" width="1.20567" height="1.20567" fill="black"/>
<rect x="22.4254" y="20.0143" width="1.20567" height="1.20567" fill="black"/>
<rect x="24.8368" y="20.0143" width="1.20567" height="1.20567" fill="black"/>
<rect x="26.0425" y="20.0143" width="1.20567" height="1.20567" fill="black"/>
<rect x="30.8651" y="20.0143" width="1.20567" height="1.20567" fill="black"/>
<rect x="4.3403" y="21.2199" width="1.20567" height="1.20567" fill="black"/>
<rect x="7.95737" y="21.2199" width="1.20567" height="1.20567" fill="black"/>
<rect x="9.16306" y="21.2199" width="1.20567" height="1.20567" fill="black"/>
<rect x="11.5744" y="21.2199" width="1.20567" height="1.20567" fill="black"/>
<rect x="17.6028" y="21.2199" width="1.20567" height="1.20567" fill="black"/>
<rect x="21.2197" y="21.2199" width="1.20567" height="1.20567" fill="black"/>
<rect x="22.4254" y="21.2199" width="1.20567" height="1.20567" fill="black"/>
<rect x="23.6311" y="21.2199" width="1.20567" height="1.20567" fill="black"/>
<rect x="24.8368" y="21.2199" width="1.20567" height="1.20567" fill="black"/>
<rect x="26.0425" y="21.2199" width="1.20567" height="1.20567" fill="black"/>
<rect x="27.2482" y="21.2199" width="1.20567" height="1.20567" fill="black"/>
<rect x="28.4539" y="21.2199" width="1.20567" height="1.20567" fill="black"/>
<rect x="29.6595" y="21.2199" width="1.20567" height="1.20567" fill="black"/>
<rect x="30.8651" y="21.2199" width="1.20567" height="1.20567" fill="black"/>
<rect x="11.5744" y="22.4257" width="1.20567" height="1.20567" fill="black"/>
<rect x="12.7801" y="22.4257" width="1.20567" height="1.20567" fill="black"/>
<rect x="13.9857" y="22.4257" width="1.20567" height="1.20567" fill="black"/>
<rect x="15.1914" y="22.4257" width="1.20567" height="1.20567" fill="black"/>
<rect x="20.0141" y="22.4257" width="1.20567" height="1.20567" fill="black"/>
<rect x="21.2197" y="22.4257" width="1.20567" height="1.20567" fill="black"/>
<rect x="26.0425" y="22.4257" width="1.20567" height="1.20567" fill="black"/>
<rect x="28.4539" y="22.4257" width="1.20567" height="1.20567" fill="black"/>
<rect x="30.8651" y="22.4257" width="1.20567" height="1.20567" fill="black"/>
<rect x="1.92902" y="23.6313" width="1.20567" height="1.20567" fill="black"/>
<rect x="3.1347" y="23.6313" width="1.20567" height="1.20567" fill="black"/>
<rect x="4.3403" y="23.6313" width="1.20567" height="1.20567" fill="black"/>
<rect x="5.54599" y="23.6313" width="1.20567" height="1.20567" fill="black"/>
<rect x="6.75168" y="23.6313" width="1.20567" height="1.20567" fill="black"/>
<rect x="7.95737" y="23.6313" width="1.20567" height="1.20567" fill="black"/>
<rect x="9.16306" y="23.6313" width="1.20567" height="1.20567" fill="black"/>
<rect x="12.7801" y="23.6313" width="1.20567" height="1.20567" fill="black"/>
<rect x="17.6028" y="23.6313" width="1.20567" height="1.20567" fill="black"/>
<rect x="18.8084" y="23.6313" width="1.20567" height="1.20567" fill="black"/>
<rect x="21.2197" y="23.6313" width="1.20567" height="1.20567" fill="black"/>
<rect x="23.6311" y="23.6313" width="1.20567" height="1.20567" fill="black"/>
<rect x="26.0425" y="23.6313" width="1.20567" height="1.20567" fill="black"/>
<rect x="28.4539" y="23.6313" width="1.20567" height="1.20567" fill="black"/>
<rect x="29.6595" y="23.6313" width="1.20567" height="1.20567" fill="black"/>
<rect x="30.8651" y="23.6313" width="1.20567" height="1.20567" fill="black"/>
<rect x="1.92902" y="24.8369" width="1.20567" height="1.20567" fill="black"/>
<rect x="9.16306" y="24.8369" width="1.20567" height="1.20567" fill="black"/>
<rect x="12.7801" y="24.8369" width="1.20567" height="1.20567" fill="black"/>
<rect x="15.1914" y="24.8369" width="1.20567" height="1.20567" fill="black"/>
<rect x="18.8084" y="24.8369" width="1.20567" height="1.20567" fill="black"/>
<rect x="20.0141" y="24.8369" width="1.20567" height="1.20567" fill="black"/>
<rect x="21.2197" y="24.8369" width="1.20567" height="1.20567" fill="black"/>
<rect x="26.0425" y="24.8369" width="1.20567" height="1.20567" fill="black"/>
<rect x="29.6595" y="24.8369" width="1.20567" height="1.20567" fill="black"/>
<rect x="30.8651" y="24.8369" width="1.20567" height="1.20567" fill="black"/>
<rect x="1.92902" y="26.0427" width="1.20567" height="1.20567" fill="black"/>
<rect x="4.3403" y="26.0427" width="1.20567" height="1.20567" fill="black"/>
<rect x="5.54599" y="26.0427" width="1.20567" height="1.20567" fill="black"/>
<rect x="6.75168" y="26.0427" width="1.20567" height="1.20567" fill="black"/>
<rect x="9.16306" y="26.0427" width="1.20567" height="1.20567" fill="black"/>
<rect x="12.7801" y="26.0427" width="1.20567" height="1.20567" fill="black"/>
<rect x="15.1914" y="26.0427" width="1.20567" height="1.20567" fill="black"/>
<rect x="16.3971" y="26.0427" width="1.20567" height="1.20567" fill="black"/>
<rect x="18.8084" y="26.0427" width="1.20567" height="1.20567" fill="black"/>
<rect x="21.2197" y="26.0427" width="1.20567" height="1.20567" fill="black"/>
<rect x="22.4254" y="26.0427" width="1.20567" height="1.20567" fill="black"/>
<rect x="23.6311" y="26.0427" width="1.20567" height="1.20567" fill="black"/>
<rect x="24.8368" y="26.0427" width="1.20567" height="1.20567" fill="black"/>
<rect x="26.0425" y="26.0427" width="1.20567" height="1.20567" fill="black"/>
<rect x="27.2482" y="26.0427" width="1.20567" height="1.20567" fill="black"/>
<rect x="29.6595" y="26.0427" width="1.20567" height="1.20567" fill="black"/>
<rect x="30.8651" y="26.0427" width="1.20567" height="1.20567" fill="black"/>
<rect x="1.92902" y="27.2482" width="1.20567" height="1.20567" fill="black"/>
<rect x="4.3403" y="27.2482" width="1.20567" height="1.20567" fill="black"/>
<rect x="5.54599" y="27.2482" width="1.20567" height="1.20567" fill="black"/>
<rect x="6.75168" y="27.2482" width="1.20567" height="1.20567" fill="black"/>
<rect x="9.16306" y="27.2482" width="1.20567" height="1.20567" fill="black"/>
<rect x="11.5744" y="27.2482" width="1.20567" height="1.20567" fill="black"/>
<rect x="15.1914" y="27.2482" width="1.20567" height="1.20567" fill="black"/>
<rect x="17.6028" y="27.2482" width="1.20567" height="1.20567" fill="black"/>
<rect x="23.6311" y="27.2482" width="1.20567" height="1.20567" fill="black"/>
<rect x="26.0425" y="27.2482" width="1.20567" height="1.20567" fill="black"/>
<rect x="27.2482" y="27.2482" width="1.20567" height="1.20567" fill="black"/>
<rect x="28.4539" y="27.2482" width="1.20567" height="1.20567" fill="black"/>
<rect x="29.6595" y="27.2482" width="1.20567" height="1.20567" fill="black"/>
<rect x="30.8651" y="27.2482" width="1.20567" height="1.20567" fill="black"/>
<rect x="1.92902" y="28.4538" width="1.20567" height="1.20567" fill="black"/>
<rect x="4.3403" y="28.4538" width="1.20567" height="1.20567" fill="black"/>
<rect x="5.54599" y="28.4538" width="1.20567" height="1.20567" fill="black"/>
<rect x="6.75168" y="28.4538" width="1.20567" height="1.20567" fill="black"/>
<rect x="9.16306" y="28.4538" width="1.20567" height="1.20567" fill="black"/>
<rect x="11.5744" y="28.4538" width="1.20567" height="1.20567" fill="black"/>
<rect x="12.7801" y="28.4538" width="1.20567" height="1.20567" fill="black"/>
<rect x="13.9857" y="28.4538" width="1.20567" height="1.20567" fill="black"/>
<rect x="15.1914" y="28.4538" width="1.20567" height="1.20567" fill="black"/>
<rect x="16.3971" y="28.4538" width="1.20567" height="1.20567" fill="black"/>
<rect x="17.6028" y="28.4538" width="1.20567" height="1.20567" fill="black"/>
<rect x="18.8084" y="28.4538" width="1.20567" height="1.20567" fill="black"/>
<rect x="22.4254" y="28.4538" width="1.20567" height="1.20567" fill="black"/>
<rect x="23.6311" y="28.4538" width="1.20567" height="1.20567" fill="black"/>
<rect x="26.0425" y="28.4538" width="1.20567" height="1.20567" fill="black"/>
<rect x="28.4539" y="28.4538" width="1.20567" height="1.20567" fill="black"/>
<rect x="29.6595" y="28.4538" width="1.20567" height="1.20567" fill="black"/>
<rect x="1.92902" y="29.6596" width="1.20567" height="1.20567" fill="black"/>
<rect x="9.16306" y="29.6596" width="1.20567" height="1.20567" fill="black"/>
<rect x="11.5744" y="29.6596" width="1.20567" height="1.20567" fill="black"/>
<rect x="13.9857" y="29.6596" width="1.20567" height="1.20567" fill="black"/>
<rect x="16.3971" y="29.6596" width="1.20567" height="1.20567" fill="black"/>
<rect x="17.6028" y="29.6596" width="1.20567" height="1.20567" fill="black"/>
<rect x="18.8084" y="29.6596" width="1.20567" height="1.20567" fill="black"/>
<rect x="20.0141" y="29.6596" width="1.20567" height="1.20567" fill="black"/>
<rect x="22.4254" y="29.6596" width="1.20567" height="1.20567" fill="black"/>
<rect x="23.6311" y="29.6596" width="1.20567" height="1.20567" fill="black"/>
<rect x="26.0425" y="29.6596" width="1.20567" height="1.20567" fill="black"/>
<rect x="28.4539" y="29.6596" width="1.20567" height="1.20567" fill="black"/>
<rect x="1.92902" y="30.8652" width="1.20567" height="1.20567" fill="black"/>
<rect x="3.1347" y="30.8652" width="1.20567" height="1.20567" fill="black"/>
<rect x="4.3403" y="30.8652" width="1.20567" height="1.20567" fill="black"/>
<rect x="5.54599" y="30.8652" width="1.20567" height="1.20567" fill="black"/>
<rect x="6.75168" y="30.8652" width="1.20567" height="1.20567" fill="black"/>
<rect x="7.95737" y="30.8652" width="1.20567" height="1.20567" fill="black"/>
<rect x="9.16306" y="30.8652" width="1.20567" height="1.20567" fill="black"/>
<rect x="11.5744" y="30.8652" width="1.20567" height="1.20567" fill="black"/>
<rect x="16.3971" y="30.8652" width="1.20567" height="1.20567" fill="black"/>
<rect x="17.6028" y="30.8652" width="1.20567" height="1.20567" fill="black"/>
<rect x="18.8084" y="30.8652" width="1.20567" height="1.20567" fill="black"/>
<rect x="24.8368" y="30.8652" width="1.20567" height="1.20567" fill="black"/>
<rect x="26.0425" y="30.8652" width="1.20567" height="1.20567" fill="black"/>
<rect x="27.2482" y="30.8652" width="1.20567" height="1.20567" fill="black"/>
<rect x="28.4539" y="30.8652" width="1.20567" height="1.20567" fill="black"/>
<rect x="29.6595" y="30.8652" width="1.20567" height="1.20567" fill="black"/>
<rect x="30.8651" y="30.8652" width="1.20567" height="1.20567" fill="black"/>
</svg>
